<svg xmlns="http://www.w3.org/2000/svg" xmlns:xlink="http://www.w3.org/1999/xlink" width="1000" zoomAndPan="magnify" viewBox="0 0 750 749.999995" height="1000" preserveAspectRatio="xMidYMid meet" version="1.0"><path fill="#ffffff" d="M 585.792969 539.207031 L 750 375 L 604.292969 229.292969 L 684.375 65.625 L 520.707031 145.707031 L 375 0 L 210.792969 164.207031 L 109.832031 109.832031 L 164.207031 210.792969 L 0 375 L 145.707031 520.707031 L 65.625 684.375 L 229.292969 604.292969 L 375 750 L 539.207031 585.792969 L 640.167969 640.167969 Z M 585.792969 539.207031 " fill-opacity="1" fill-rule="nonzero"/><path fill="#000000" d="M 542.496094 374.960938 L 547.007812 370.4375 C 548.226562 369.226562 549.398438 367.96875 550.519531 366.667969 C 551.640625 365.367188 552.707031 364.023438 553.722656 362.640625 C 554.738281 361.253906 555.699219 359.832031 556.605469 358.371094 C 557.507812 356.910156 558.355469 355.417969 559.140625 353.890625 C 559.929688 352.363281 560.65625 350.808594 561.324219 349.226562 C 561.988281 347.644531 562.589844 346.035156 563.132812 344.40625 C 563.671875 342.773438 564.148438 341.125 564.558594 339.457031 C 564.96875 337.789062 565.316406 336.109375 565.59375 334.414062 C 565.875 332.71875 566.085938 331.015625 566.234375 329.304688 C 566.378906 327.59375 566.460938 325.878906 566.472656 324.160156 C 566.484375 322.445312 566.429688 320.726562 566.308594 319.015625 C 566.183594 317.300781 565.996094 315.59375 565.742188 313.898438 C 565.484375 312.199219 565.164062 310.511719 564.777344 308.839844 C 564.386719 307.164062 563.9375 305.507812 563.417969 303.871094 C 562.902344 302.234375 562.324219 300.617188 561.679688 299.027344 C 561.035156 297.433594 560.332031 295.867188 559.566406 294.332031 C 558.800781 292.792969 557.972656 291.289062 557.089844 289.816406 C 556.207031 288.34375 555.265625 286.90625 554.269531 285.507812 C 553.277344 284.105469 552.226562 282.75 551.125 281.429688 C 550.023438 280.113281 548.871094 278.839844 547.667969 277.613281 C 546.464844 276.386719 545.21875 275.207031 543.925781 274.078125 C 542.628906 272.949219 541.292969 271.871094 539.914062 270.847656 C 538.539062 269.820312 537.121094 268.851562 535.667969 267.9375 C 534.210938 267.023438 532.726562 266.167969 531.203125 265.371094 C 529.683594 264.574219 528.132812 263.835938 526.554688 263.160156 C 524.976562 262.484375 523.371094 261.867188 521.746094 261.316406 C 520.117188 260.765625 518.472656 260.28125 516.808594 259.859375 C 515.140625 259.433594 513.464844 259.078125 511.769531 258.789062 C 510.078125 258.496094 508.375 258.273438 506.664062 258.113281 C 504.957031 257.957031 503.242188 257.867188 501.523438 257.84375 C 499.804688 257.820312 498.089844 257.863281 496.375 257.972656 C 494.664062 258.082031 492.953125 258.261719 491.253906 258.503906 C 491.488281 256.808594 491.65625 255.105469 491.757812 253.394531 C 491.855469 251.683594 491.890625 249.972656 491.859375 248.257812 C 491.824219 246.546875 491.726562 244.835938 491.558594 243.132812 C 491.394531 241.425781 491.160156 239.730469 490.863281 238.042969 C 490.5625 236.355469 490.199219 234.683594 489.773438 233.023438 C 489.34375 231.367188 488.851562 229.726562 488.292969 228.105469 C 487.738281 226.484375 487.117188 224.890625 486.4375 223.316406 C 485.753906 221.746094 485.015625 220.203125 484.214844 218.6875 C 483.410156 217.171875 482.550781 215.691406 481.636719 214.246094 C 480.71875 212.796875 479.746094 211.386719 478.71875 210.015625 C 477.691406 208.644531 476.613281 207.316406 475.484375 206.027344 C 474.351562 204.742188 473.175781 203.5 471.945312 202.304688 C 470.71875 201.109375 469.449219 199.964844 468.132812 198.867188 C 466.8125 197.769531 465.457031 196.726562 464.058594 195.738281 C 462.660156 194.746094 461.226562 193.8125 459.753906 192.933594 C 458.285156 192.054688 456.78125 191.234375 455.246094 190.472656 C 453.710938 189.714844 452.148438 189.011719 450.558594 188.375 C 448.972656 187.734375 447.359375 187.15625 445.726562 186.644531 C 444.089844 186.128906 442.4375 185.679688 440.769531 185.296875 C 439.097656 184.910156 437.417969 184.589844 435.722656 184.335938 C 434.027344 184.082031 432.328125 183.894531 430.617188 183.773438 C 428.910156 183.652344 427.199219 183.597656 425.484375 183.609375 C 423.773438 183.625 422.0625 183.703125 420.355469 183.847656 C 418.648438 183.992188 416.949219 184.207031 415.257812 184.484375 C 413.566406 184.761719 411.890625 185.105469 410.226562 185.515625 C 408.5625 185.921875 406.917969 186.394531 405.289062 186.933594 C 403.664062 187.46875 402.058594 188.070312 400.480469 188.734375 C 398.898438 189.394531 397.347656 190.117188 395.824219 190.902344 C 394.300781 191.683594 392.808594 192.527344 391.351562 193.425781 C 389.894531 194.324219 388.472656 195.28125 387.089844 196.289062 C 385.703125 197.300781 384.363281 198.363281 383.0625 199.476562 C 381.761719 200.59375 380.507812 201.757812 379.296875 202.96875 L 374.769531 207.480469 L 370.464844 203.175781 C 369.253906 201.957031 368 200.785156 366.699219 199.664062 C 365.402344 198.546875 364.058594 197.476562 362.675781 196.460938 C 361.292969 195.445312 359.871094 194.484375 358.414062 193.582031 C 356.953125 192.675781 355.460938 191.832031 353.9375 191.042969 C 352.414062 190.253906 350.859375 189.527344 349.277344 188.859375 C 347.695312 188.195312 346.089844 187.589844 344.464844 187.050781 C 342.835938 186.507812 341.1875 186.03125 339.519531 185.621094 C 337.855469 185.207031 336.175781 184.859375 334.480469 184.578125 C 332.789062 184.300781 331.085938 184.085938 329.378906 183.9375 C 327.667969 183.789062 325.953125 183.707031 324.238281 183.695312 C 322.523438 183.679688 320.808594 183.734375 319.097656 183.851562 C 317.382812 183.972656 315.679688 184.160156 313.980469 184.414062 C 312.285156 184.667969 310.597656 184.984375 308.925781 185.371094 C 307.253906 185.753906 305.597656 186.207031 303.960938 186.71875 C 302.324219 187.234375 300.710938 187.8125 299.117188 188.453125 C 297.523438 189.09375 295.960938 189.796875 294.421875 190.558594 C 292.886719 191.320312 291.378906 192.144531 289.90625 193.023438 C 288.433594 193.90625 287 194.839844 285.597656 195.835938 C 284.199219 196.828125 282.839844 197.875 281.519531 198.972656 C 280.203125 200.070312 278.929688 201.222656 277.703125 202.421875 C 276.472656 203.617188 275.292969 204.863281 274.164062 206.15625 C 273.03125 207.445312 271.953125 208.777344 270.925781 210.152344 C 269.902344 211.53125 268.929688 212.941406 268.011719 214.394531 C 267.097656 215.84375 266.238281 217.332031 265.4375 218.847656 C 264.636719 220.367188 263.898438 221.914062 263.21875 223.492188 C 262.539062 225.066406 261.925781 226.667969 261.371094 228.292969 C 260.816406 229.914062 260.328125 231.558594 259.902344 233.222656 C 259.476562 234.886719 259.117188 236.5625 258.820312 238.253906 C 258.527344 239.941406 258.300781 241.644531 258.136719 243.351562 C 257.976562 245.058594 257.882812 246.773438 257.855469 248.488281 C 257.824219 250.203125 257.867188 251.917969 257.972656 253.632812 C 258.078125 255.34375 258.25 257.050781 258.492188 258.75 C 256.792969 258.515625 255.089844 258.347656 253.378906 258.25 C 251.667969 258.148438 249.957031 258.113281 248.242188 258.144531 C 246.53125 258.179688 244.820312 258.277344 243.117188 258.441406 C 241.410156 258.609375 239.714844 258.839844 238.027344 259.136719 C 236.339844 259.4375 234.667969 259.800781 233.007812 260.226562 C 231.347656 260.65625 229.707031 261.148438 228.085938 261.707031 C 226.46875 262.261719 224.871094 262.882812 223.296875 263.5625 C 221.726562 264.242188 220.183594 264.984375 218.667969 265.785156 C 217.152344 266.585938 215.671875 267.445312 214.226562 268.363281 C 212.777344 269.28125 211.367188 270.25 209.996094 271.277344 C 208.625 272.304688 207.292969 273.382812 206.007812 274.515625 C 204.71875 275.644531 203.476562 276.824219 202.28125 278.050781 C 201.085938 279.277344 199.941406 280.550781 198.84375 281.867188 C 197.746094 283.183594 196.703125 284.539062 195.710938 285.9375 C 194.722656 287.335938 193.785156 288.769531 192.910156 290.242188 C 192.03125 291.714844 191.210938 293.214844 190.449219 294.75 C 189.6875 296.285156 188.984375 297.847656 188.347656 299.4375 C 187.707031 301.027344 187.128906 302.640625 186.617188 304.273438 C 186.101562 305.910156 185.652344 307.558594 185.265625 309.230469 C 184.882812 310.898438 184.5625 312.582031 184.308594 314.277344 C 184.054688 315.972656 183.867188 317.671875 183.746094 319.382812 C 183.625 321.089844 183.570312 322.800781 183.582031 324.515625 C 183.59375 326.230469 183.671875 327.941406 183.816406 329.648438 C 183.964844 331.355469 184.175781 333.054688 184.453125 334.742188 C 184.730469 336.433594 185.074219 338.113281 185.484375 339.777344 C 185.894531 341.441406 186.367188 343.085938 186.902344 344.710938 C 187.441406 346.339844 188.039062 347.941406 188.703125 349.523438 C 189.367188 351.105469 190.089844 352.65625 190.871094 354.179688 C 191.65625 355.703125 192.496094 357.195312 193.394531 358.652344 C 194.296875 360.113281 195.25 361.53125 196.261719 362.917969 C 197.273438 364.300781 198.335938 365.640625 199.449219 366.941406 C 200.566406 368.246094 201.730469 369.5 202.941406 370.710938 L 207.46875 375.234375 L 203.160156 379.554688 C 202.011719 380.699219 200.90625 381.886719 199.847656 383.113281 C 198.785156 384.339844 197.769531 385.601562 196.800781 386.902344 C 195.835938 388.207031 194.914062 389.539062 194.046875 390.910156 C 193.175781 392.277344 192.359375 393.675781 191.59375 395.105469 C 190.824219 396.535156 190.113281 397.992188 189.453125 399.472656 C 188.792969 400.957031 188.191406 402.460938 187.644531 403.984375 C 187.09375 405.511719 186.605469 407.058594 186.167969 408.621094 C 185.734375 410.183594 185.359375 411.757812 185.042969 413.347656 C 184.722656 414.9375 184.464844 416.539062 184.265625 418.148438 C 184.0625 419.757812 183.921875 421.371094 183.84375 422.992188 C 183.761719 424.613281 183.742188 426.234375 183.777344 427.855469 C 183.816406 429.476562 183.914062 431.09375 184.074219 432.707031 C 184.230469 434.320312 184.449219 435.929688 184.726562 437.527344 C 185 439.125 185.335938 440.710938 185.730469 442.285156 C 186.121094 443.855469 186.574219 445.414062 187.082031 446.953125 C 187.589844 448.492188 188.152344 450.011719 188.773438 451.511719 C 189.394531 453.011719 190.066406 454.484375 190.796875 455.933594 C 191.523438 457.382812 192.304688 458.800781 193.140625 460.195312 C 193.972656 461.585938 194.855469 462.945312 195.789062 464.269531 C 196.722656 465.59375 197.703125 466.886719 198.734375 468.140625 C 199.761719 469.394531 200.835938 470.605469 201.953125 471.78125 C 203.074219 472.957031 204.234375 474.089844 205.433594 475.175781 C 206.636719 476.265625 207.875 477.308594 209.15625 478.308594 C 210.433594 479.304688 211.746094 480.253906 213.097656 481.15625 C 214.445312 482.054688 215.824219 482.90625 217.234375 483.703125 C 218.648438 484.503906 220.085938 485.25 221.554688 485.941406 C 223.019531 486.636719 224.507812 487.273438 226.023438 487.855469 C 227.535156 488.4375 229.070312 488.964844 230.621094 489.4375 C 232.171875 489.90625 233.742188 490.316406 235.324219 490.671875 C 236.90625 491.027344 238.5 491.320312 240.105469 491.558594 C 241.707031 491.796875 243.320312 491.972656 244.9375 492.089844 C 246.554688 492.210938 248.175781 492.269531 249.796875 492.265625 C 252.71875 492.179688 255.621094 491.902344 258.503906 491.433594 C 258.269531 493.128906 258.101562 494.835938 257.996094 496.546875 C 257.894531 498.257812 257.859375 499.96875 257.890625 501.683594 C 257.921875 503.398438 258.019531 505.109375 258.183594 506.8125 C 258.347656 508.519531 258.578125 510.21875 258.875 511.90625 C 259.171875 513.59375 259.535156 515.269531 259.960938 516.929688 C 260.390625 518.589844 260.882812 520.230469 261.4375 521.851562 C 261.992188 523.472656 262.609375 525.070312 263.289062 526.644531 C 263.96875 528.21875 264.710938 529.761719 265.511719 531.277344 C 266.3125 532.792969 267.171875 534.277344 268.085938 535.722656 C 269.003906 537.171875 269.972656 538.582031 271 539.957031 C 272.027344 541.328125 273.105469 542.660156 274.234375 543.949219 C 275.363281 545.238281 276.542969 546.480469 277.769531 547.679688 C 278.996094 548.875 280.269531 550.023438 281.585938 551.121094 C 282.902344 552.21875 284.257812 553.261719 285.65625 554.253906 C 287.054688 555.246094 288.488281 556.183594 289.960938 557.0625 C 291.433594 557.945312 292.933594 558.765625 294.46875 559.527344 C 296.003906 560.289062 297.566406 560.992188 299.15625 561.632812 C 300.746094 562.273438 302.359375 562.851562 303.996094 563.367188 C 305.628906 563.882812 307.28125 564.332031 308.953125 564.71875 C 310.621094 565.105469 312.304688 565.425781 314 565.679688 C 315.695312 565.9375 317.398438 566.125 319.105469 566.246094 C 320.816406 566.367188 322.527344 566.425781 324.242188 566.414062 C 325.957031 566.402344 327.667969 566.324219 329.375 566.179688 C 331.085938 566.035156 332.785156 565.824219 334.476562 565.546875 C 336.167969 565.265625 337.847656 564.925781 339.511719 564.515625 C 341.175781 564.109375 342.820312 563.636719 344.449219 563.097656 C 346.078125 562.5625 347.683594 561.960938 349.261719 561.300781 C 350.84375 560.636719 352.398438 559.917969 353.921875 559.132812 C 355.449219 558.351562 356.941406 557.507812 358.398438 556.609375 C 359.859375 555.710938 361.28125 554.753906 362.664062 553.746094 C 364.050781 552.734375 365.394531 551.671875 366.695312 550.554688 C 367.996094 549.441406 369.253906 548.277344 370.464844 547.0625 L 374.769531 542.757812 L 379.296875 547.269531 C 382.355469 550.339844 385.683594 553.078125 389.285156 555.492188 C 392.886719 557.902344 396.6875 559.9375 400.691406 561.601562 C 404.691406 563.261719 408.820312 564.515625 413.070312 565.359375 C 417.320312 566.207031 421.609375 566.628906 425.945312 566.628906 C 428.148438 566.628906 430.34375 566.515625 432.535156 566.285156 C 433.640625 566.179688 434.742188 566.046875 435.84375 565.882812 C 436.941406 565.722656 438.035156 565.53125 439.125 565.316406 C 440.214844 565.097656 441.296875 564.851562 442.375 564.582031 C 443.453125 564.308594 444.523438 564.007812 445.585938 563.679688 C 446.644531 563.355469 447.699219 563 448.742188 562.621094 C 449.789062 562.242188 450.820312 561.835938 451.84375 561.402344 C 452.867188 560.96875 453.878906 560.511719 454.878906 560.027344 C 455.878906 559.542969 456.867188 559.03125 457.839844 558.496094 C 458.816406 557.964844 459.773438 557.40625 460.722656 556.820312 C 461.667969 556.238281 462.597656 555.632812 463.511719 555 C 464.425781 554.371094 465.324219 553.71875 466.207031 553.042969 C 467.089844 552.367188 467.953125 551.667969 468.800781 550.949219 C 469.644531 550.226562 470.472656 549.488281 471.28125 548.726562 C 472.089844 547.964844 472.878906 547.179688 473.648438 546.378906 C 474.417969 545.578125 475.167969 544.757812 475.894531 543.917969 C 476.621094 543.078125 477.328125 542.21875 478.011719 541.34375 C 478.695312 540.464844 479.355469 539.574219 479.992188 538.664062 C 480.632812 537.753906 481.246094 536.832031 481.839844 535.890625 C 482.429688 534.949219 482.996094 533.992188 483.539062 533.023438 C 484.082031 532.054688 484.601562 531.074219 485.09375 530.078125 C 485.585938 529.082031 486.054688 528.074219 486.496094 527.054688 C 486.9375 526.035156 487.351562 525.003906 487.742188 523.964844 C 488.132812 522.921875 488.496094 521.871094 488.832031 520.8125 C 489.167969 519.753906 489.476562 518.6875 489.757812 517.613281 C 490.039062 516.539062 490.292969 515.457031 490.523438 514.371094 C 490.75 513.28125 490.949219 512.1875 491.121094 511.089844 C 491.292969 509.992188 491.433594 508.890625 491.550781 507.785156 C 491.667969 506.683594 491.753906 505.574219 491.8125 504.464844 C 491.871094 503.355469 491.902344 502.246094 491.90625 501.132812 C 491.910156 500.023438 491.882812 498.914062 491.832031 497.800781 C 491.777344 496.691406 491.695312 495.585938 491.585938 494.480469 C 491.476562 493.375 491.339844 492.269531 491.171875 491.171875 C 492.871094 491.410156 494.574219 491.582031 496.285156 491.6875 C 497.996094 491.792969 499.707031 491.828125 501.421875 491.800781 C 503.132812 491.769531 504.84375 491.675781 506.550781 491.511719 C 508.257812 491.351562 509.953125 491.121094 511.640625 490.828125 C 513.332031 490.53125 515.003906 490.171875 516.664062 489.746094 C 518.324219 489.320312 519.964844 488.832031 521.589844 488.277344 C 523.210938 487.722656 524.808594 487.109375 526.382812 486.429688 C 527.957031 485.75 529.5 485.011719 531.015625 484.214844 C 532.53125 483.414062 534.015625 482.558594 535.464844 481.640625 C 536.914062 480.726562 538.324219 479.757812 539.699219 478.730469 C 541.074219 477.707031 542.402344 476.628906 543.691406 475.5 C 544.984375 474.371094 546.226562 473.195312 547.421875 471.96875 C 548.621094 470.742188 549.769531 469.472656 550.867188 468.15625 C 551.964844 466.839844 553.011719 465.484375 554.003906 464.085938 C 554.996094 462.6875 555.933594 461.253906 556.8125 459.785156 C 557.691406 458.316406 558.515625 456.8125 559.277344 455.277344 C 560.042969 453.742188 560.742188 452.179688 561.382812 450.59375 C 562.027344 449.003906 562.605469 447.390625 563.121094 445.757812 C 563.632812 444.121094 564.085938 442.46875 564.472656 440.800781 C 564.859375 439.128906 565.179688 437.449219 565.433594 435.753906 C 565.6875 434.058594 565.878906 432.355469 566 430.648438 C 566.121094 428.9375 566.175781 427.226562 566.167969 425.511719 C 566.15625 423.796875 566.078125 422.085938 565.929688 420.378906 C 565.785156 418.671875 565.574219 416.972656 565.296875 415.28125 C 565.019531 413.589844 564.675781 411.910156 564.269531 410.246094 C 563.859375 408.582031 563.386719 406.9375 562.847656 405.308594 C 562.3125 403.683594 561.710938 402.078125 561.050781 400.496094 C 560.386719 398.917969 559.664062 397.363281 558.878906 395.839844 C 558.097656 394.316406 557.253906 392.824219 556.355469 391.367188 C 555.453125 389.90625 554.5 388.488281 553.488281 387.101562 C 552.476562 385.71875 551.414062 384.375 550.296875 383.074219 C 549.183594 381.773438 548.015625 380.519531 546.804688 379.308594 Z M 291.5625 228.398438 C 293.152344 226.011719 294.984375 223.832031 297.054688 221.851562 C 299.128906 219.875 301.394531 218.148438 303.855469 216.671875 C 306.3125 215.199219 308.902344 214.011719 311.625 213.113281 C 314.347656 212.214844 317.132812 211.628906 319.988281 211.351562 C 321.257812 211.226562 322.558594 211.171875 323.828125 211.171875 C 326.367188 211.167969 328.886719 211.414062 331.375 211.90625 C 333.867188 212.402344 336.285156 213.136719 338.632812 214.109375 C 340.980469 215.082031 343.207031 216.273438 345.320312 217.6875 C 347.429688 219.101562 349.378906 220.707031 351.171875 222.507812 L 365.253906 236.589844 C 365.589844 236.921875 365.941406 237.234375 366.308594 237.527344 C 366.675781 237.824219 367.058594 238.097656 367.457031 238.355469 C 367.851562 238.609375 368.261719 238.84375 368.679688 239.058594 C 369.101562 239.269531 369.53125 239.460938 369.972656 239.628906 C 370.414062 239.796875 370.859375 239.945312 371.316406 240.066406 C 371.769531 240.1875 372.230469 240.285156 372.695312 240.363281 C 373.164062 240.4375 373.628906 240.488281 374.101562 240.511719 C 374.570312 240.539062 375.042969 240.542969 375.511719 240.519531 C 375.984375 240.496094 376.453125 240.449219 376.917969 240.378906 C 377.386719 240.308594 377.847656 240.214844 378.304688 240.09375 C 378.757812 239.976562 379.207031 239.835938 379.648438 239.667969 C 380.089844 239.503906 380.523438 239.316406 380.945312 239.105469 C 381.367188 238.898438 381.777344 238.667969 382.175781 238.414062 C 382.574219 238.160156 382.960938 237.890625 383.328125 237.597656 C 383.699219 237.304688 384.054688 236.996094 384.390625 236.667969 C 384.730469 236.339844 385.050781 235.992188 385.351562 235.632812 L 398.667969 222.300781 C 399.578125 221.457031 400.523438 220.660156 401.507812 219.90625 C 402.492188 219.152344 403.507812 218.449219 404.558594 217.792969 C 405.613281 217.136719 406.691406 216.535156 407.800781 215.984375 C 408.914062 215.433594 410.046875 214.933594 411.203125 214.492188 C 412.359375 214.050781 413.535156 213.664062 414.730469 213.332031 C 415.925781 213.003906 417.132812 212.730469 418.355469 212.519531 C 419.574219 212.304688 420.804688 212.148438 422.039062 212.054688 C 423.273438 211.957031 424.511719 211.921875 425.75 211.945312 C 426.988281 211.96875 428.222656 212.050781 429.457031 212.191406 C 430.6875 212.332031 431.90625 212.53125 433.121094 212.792969 C 434.332031 213.050781 435.527344 213.367188 436.710938 213.738281 C 437.890625 214.113281 439.050781 214.542969 440.191406 215.027344 C 441.332031 215.511719 442.449219 216.050781 443.535156 216.644531 C 444.625 217.234375 445.683594 217.878906 446.710938 218.574219 C 447.734375 219.265625 448.726562 220.007812 449.683594 220.796875 C 450.640625 221.585938 451.554688 222.417969 452.429688 223.296875 C 453.304688 224.171875 454.136719 225.089844 454.925781 226.046875 C 455.714844 227 456.453125 227.992188 457.144531 229.023438 C 457.839844 230.050781 458.480469 231.109375 459.070312 232.199219 C 459.660156 233.285156 460.199219 234.402344 460.683594 235.542969 C 461.164062 236.683594 461.59375 237.84375 461.964844 239.027344 C 462.339844 240.210938 462.652344 241.40625 462.910156 242.617188 C 463.167969 243.832031 463.367188 245.050781 463.503906 246.285156 C 463.644531 247.515625 463.726562 248.75 463.746094 249.988281 C 463.769531 251.226562 463.730469 252.464844 463.632812 253.699219 C 463.535156 254.9375 463.378906 256.164062 463.164062 257.382812 C 462.949219 258.605469 462.675781 259.8125 462.34375 261.007812 C 462.011719 262.199219 461.625 263.375 461.179688 264.53125 C 460.738281 265.691406 460.238281 266.824219 459.6875 267.933594 C 459.132812 269.039062 458.527344 270.121094 457.871094 271.171875 C 457.214844 272.222656 456.507812 273.238281 455.753906 274.222656 C 455 275.207031 454.203125 276.152344 453.355469 277.058594 L 388.632812 341.863281 L 388.632812 291.277344 C 388.632812 290.378906 388.546875 289.488281 388.371094 288.609375 C 388.195312 287.730469 387.9375 286.875 387.59375 286.042969 C 387.25 285.214844 386.828125 284.425781 386.328125 283.679688 C 385.832031 282.933594 385.265625 282.242188 384.628906 281.609375 C 383.996094 280.972656 383.304688 280.40625 382.558594 279.910156 C 381.8125 279.410156 381.023438 278.988281 380.195312 278.644531 C 379.363281 278.300781 378.507812 278.042969 377.628906 277.867188 C 376.75 277.691406 375.859375 277.605469 374.960938 277.605469 C 374.0625 277.605469 373.175781 277.691406 372.292969 277.867188 C 371.414062 278.042969 370.558594 278.300781 369.730469 278.644531 C 368.902344 278.988281 368.113281 279.410156 367.367188 279.910156 C 366.621094 280.40625 365.929688 280.972656 365.292969 281.609375 C 364.660156 282.242188 364.09375 282.933594 363.59375 283.679688 C 363.09375 284.425781 362.675781 285.214844 362.332031 286.042969 C 361.988281 286.875 361.726562 287.730469 361.550781 288.609375 C 361.378906 289.488281 361.289062 290.378906 361.289062 291.277344 L 361.289062 342.148438 L 296.375 277.261719 C 295.59375 276.476562 294.847656 275.660156 294.136719 274.808594 C 293.425781 273.960938 292.753906 273.082031 292.117188 272.175781 C 291.480469 271.265625 290.886719 270.332031 290.328125 269.375 C 289.773438 268.417969 289.257812 267.4375 288.785156 266.433594 C 288.316406 265.433594 287.886719 264.410156 287.5 263.371094 C 287.117188 262.332031 286.777344 261.28125 286.480469 260.210938 C 286.1875 259.144531 285.9375 258.066406 285.734375 256.976562 C 285.535156 255.886719 285.378906 254.789062 285.269531 253.6875 C 285.160156 252.585938 285.101562 251.480469 285.085938 250.371094 C 285.070312 249.265625 285.105469 248.15625 285.1875 247.050781 C 285.265625 245.949219 285.394531 244.847656 285.570312 243.753906 C 285.742188 242.660156 285.964844 241.574219 286.230469 240.5 C 286.5 239.425781 286.8125 238.363281 287.171875 237.316406 C 287.53125 236.265625 287.933594 235.234375 288.378906 234.222656 C 288.824219 233.207031 289.316406 232.214844 289.847656 231.242188 C 290.378906 230.269531 290.949219 229.324219 291.5625 228.398438 Z M 228.386719 458.441406 C 227.792969 458.046875 227.210938 457.636719 226.640625 457.207031 C 226.070312 456.78125 225.511719 456.335938 224.964844 455.878906 C 224.417969 455.417969 223.886719 454.945312 223.363281 454.457031 C 222.84375 453.96875 222.339844 453.46875 221.847656 452.953125 C 221.355469 452.433594 220.875 451.90625 220.414062 451.363281 C 219.949219 450.820312 219.503906 450.265625 219.070312 449.699219 C 218.636719 449.132812 218.222656 448.554688 217.820312 447.960938 C 217.421875 447.371094 217.039062 446.769531 216.671875 446.160156 C 216.304688 445.546875 215.953125 444.925781 215.621094 444.296875 C 215.289062 443.664062 214.972656 443.027344 214.675781 442.378906 C 214.378906 441.730469 214.097656 441.074219 213.835938 440.410156 C 213.574219 439.746094 213.332031 439.074219 213.109375 438.398438 C 212.886719 437.722656 212.679688 437.039062 212.492188 436.351562 C 212.308594 435.664062 212.140625 434.96875 211.992188 434.273438 C 211.84375 433.574219 211.714844 432.871094 211.605469 432.167969 C 211.496094 431.464844 211.40625 430.753906 211.335938 430.046875 C 211.265625 429.335938 211.214844 428.625 211.183594 427.914062 C 211.152344 427.199219 211.144531 426.488281 211.152344 425.773438 C 211.160156 425.0625 211.1875 424.347656 211.234375 423.636719 C 211.285156 422.925781 211.351562 422.214844 211.4375 421.507812 C 211.527344 420.800781 211.632812 420.09375 211.757812 419.394531 C 211.886719 418.691406 212.03125 417.992188 212.195312 417.300781 C 212.359375 416.605469 212.542969 415.917969 212.746094 415.234375 C 212.949219 414.546875 213.171875 413.871094 213.410156 413.199219 C 213.652344 412.527344 213.910156 411.863281 214.1875 411.207031 C 214.464844 410.550781 214.757812 409.898438 215.070312 409.257812 C 215.382812 408.617188 215.714844 407.988281 216.0625 407.363281 C 216.410156 406.742188 216.773438 406.128906 217.15625 405.527344 C 217.539062 404.921875 217.9375 404.332031 218.351562 403.75 C 218.765625 403.171875 219.195312 402.601562 219.640625 402.046875 C 220.085938 401.488281 220.546875 400.945312 221.023438 400.414062 C 221.5 399.882812 221.988281 399.363281 222.492188 398.859375 L 236.574219 384.765625 C 236.90625 384.429688 237.21875 384.078125 237.515625 383.707031 C 237.808594 383.339844 238.085938 382.957031 238.339844 382.558594 C 238.597656 382.164062 238.832031 381.753906 239.042969 381.332031 C 239.257812 380.914062 239.445312 380.480469 239.617188 380.039062 C 239.785156 379.601562 239.929688 379.152344 240.050781 378.695312 C 240.171875 378.238281 240.269531 377.777344 240.34375 377.3125 C 240.417969 376.847656 240.46875 376.378906 240.496094 375.90625 C 240.519531 375.433594 240.523438 374.964844 240.5 374.492188 C 240.476562 374.019531 240.429688 373.550781 240.359375 373.085938 C 240.285156 372.621094 240.191406 372.15625 240.070312 371.703125 C 239.953125 371.246094 239.808594 370.796875 239.644531 370.355469 C 239.476562 369.914062 239.289062 369.480469 239.078125 369.058594 C 238.867188 368.636719 238.636719 368.226562 238.382812 367.828125 C 238.128906 367.429688 237.855469 367.042969 237.5625 366.675781 C 237.269531 366.304688 236.957031 365.949219 236.628906 365.613281 C 236.300781 365.273438 235.953125 364.957031 235.589844 364.652344 L 222.273438 351.351562 C 221.425781 350.445312 220.621094 349.5 219.863281 348.515625 C 219.105469 347.53125 218.394531 346.511719 217.734375 345.460938 C 217.074219 344.40625 216.46875 343.328125 215.910156 342.214844 C 215.355469 341.105469 214.855469 339.96875 214.40625 338.8125 C 213.960938 337.652344 213.570312 336.472656 213.238281 335.277344 C 212.902344 334.082031 212.628906 332.871094 212.410156 331.648438 C 212.195312 330.425781 212.035156 329.195312 211.9375 327.957031 C 211.839844 326.71875 211.800781 325.476562 211.820312 324.234375 C 211.84375 322.992188 211.921875 321.753906 212.0625 320.519531 C 212.203125 319.285156 212.402344 318.0625 212.660156 316.847656 C 212.917969 315.632812 213.234375 314.429688 213.605469 313.246094 C 213.980469 312.0625 214.410156 310.898438 214.894531 309.753906 C 215.378906 308.609375 215.917969 307.492188 216.511719 306.402344 C 217.105469 305.308594 217.75 304.25 218.445312 303.21875 C 219.140625 302.191406 219.882812 301.195312 220.671875 300.238281 C 221.464844 299.28125 222.296875 298.363281 223.175781 297.484375 C 224.054688 296.605469 224.976562 295.773438 225.933594 294.984375 C 226.894531 294.195312 227.886719 293.453125 228.917969 292.761719 C 229.949219 292.066406 231.011719 291.425781 232.105469 290.832031 C 233.195312 290.242188 234.3125 289.703125 235.457031 289.21875 C 236.601562 288.738281 237.765625 288.308594 238.953125 287.9375 C 240.136719 287.566406 241.339844 287.253906 242.554688 286.996094 C 243.769531 286.742188 244.996094 286.542969 246.230469 286.40625 C 247.464844 286.265625 248.703125 286.1875 249.945312 286.167969 C 251.1875 286.152344 252.425781 286.191406 253.664062 286.292969 C 254.902344 286.390625 256.132812 286.550781 257.355469 286.769531 C 258.578125 286.988281 259.789062 287.265625 260.984375 287.601562 C 262.179688 287.9375 263.355469 288.328125 264.515625 288.777344 C 265.675781 289.226562 266.808594 289.730469 267.917969 290.285156 C 269.027344 290.84375 270.109375 291.453125 271.160156 292.117188 C 272.210938 292.777344 273.230469 293.488281 274.210938 294.246094 C 275.195312 295.007812 276.136719 295.8125 277.042969 296.664062 L 341.792969 361.425781 L 291.085938 361.425781 C 290.1875 361.425781 289.296875 361.515625 288.417969 361.6875 C 287.539062 361.863281 286.683594 362.125 285.851562 362.46875 C 285.023438 362.8125 284.234375 363.230469 283.488281 363.730469 C 282.742188 364.230469 282.050781 364.796875 281.417969 365.429688 C 280.78125 366.066406 280.214844 366.757812 279.71875 367.503906 C 279.21875 368.25 278.796875 369.039062 278.453125 369.867188 C 278.109375 370.695312 277.851562 371.550781 277.675781 372.429688 C 277.5 373.3125 277.414062 374.199219 277.414062 375.097656 C 277.414062 375.996094 277.5 376.886719 277.675781 377.765625 C 277.851562 378.644531 278.109375 379.5 278.453125 380.332031 C 278.796875 381.160156 279.21875 381.949219 279.71875 382.695312 C 280.214844 383.441406 280.78125 384.132812 281.417969 384.765625 C 282.050781 385.402344 282.742188 385.96875 283.488281 386.464844 C 284.234375 386.964844 285.023438 387.386719 285.851562 387.730469 C 286.683594 388.074219 287.539062 388.332031 288.417969 388.507812 C 289.296875 388.683594 290.1875 388.769531 291.085938 388.769531 L 341.957031 388.769531 L 277.042969 453.617188 C 276.867188 453.792969 276.742188 454 276.566406 454.175781 C 275.777344 454.929688 274.960938 455.644531 274.113281 456.328125 C 273.261719 457.011719 272.386719 457.65625 271.484375 458.265625 C 270.582031 458.875 269.65625 459.445312 268.707031 459.972656 C 267.753906 460.503906 266.785156 460.996094 265.792969 461.445312 C 264.800781 461.894531 263.792969 462.300781 262.765625 462.664062 C 261.738281 463.027344 260.699219 463.347656 259.644531 463.625 C 258.59375 463.898438 257.53125 464.132812 256.457031 464.320312 C 255.386719 464.503906 254.308594 464.648438 253.222656 464.742188 C 252.136719 464.839844 251.050781 464.890625 249.960938 464.894531 C 248.875 464.898438 247.785156 464.855469 246.703125 464.769531 C 245.617188 464.683594 244.535156 464.550781 243.460938 464.371094 C 242.386719 464.195312 241.324219 463.972656 240.269531 463.703125 C 239.214844 463.4375 238.171875 463.125 237.140625 462.769531 C 236.113281 462.414062 235.101562 462.015625 234.105469 461.574219 C 233.109375 461.132812 232.132812 460.652344 231.179688 460.128906 C 230.222656 459.605469 229.292969 459.042969 228.386719 458.441406 Z M 458.222656 522.003906 C 457.828125 522.597656 457.414062 523.179688 456.988281 523.75 C 456.558594 524.320312 456.117188 524.878906 455.65625 525.425781 C 455.199219 525.96875 454.726562 526.503906 454.238281 527.023438 C 453.75 527.542969 453.246094 528.050781 452.730469 528.542969 C 452.214844 529.035156 451.683594 529.511719 451.140625 529.972656 C 450.597656 530.4375 450.042969 530.882812 449.476562 531.316406 C 448.910156 531.75 448.332031 532.164062 447.742188 532.566406 C 447.148438 532.964844 446.550781 533.347656 445.9375 533.714844 C 445.324219 534.082031 444.703125 534.433594 444.074219 534.765625 C 443.441406 535.097656 442.804688 535.414062 442.15625 535.710938 C 441.507812 536.007812 440.851562 536.289062 440.1875 536.550781 C 439.523438 536.8125 438.851562 537.054688 438.175781 537.277344 C 437.5 537.503906 436.816406 537.707031 436.128906 537.894531 C 435.4375 538.082031 434.746094 538.246094 434.046875 538.394531 C 433.351562 538.542969 432.648438 538.671875 431.945312 538.78125 C 431.238281 538.890625 430.53125 538.980469 429.824219 539.050781 C 429.113281 539.121094 428.402344 539.171875 427.6875 539.203125 C 426.976562 539.234375 426.261719 539.246094 425.550781 539.238281 C 424.835938 539.230469 424.125 539.203125 423.414062 539.152344 C 422.703125 539.105469 421.992188 539.039062 421.285156 538.953125 C 420.574219 538.863281 419.871094 538.757812 419.167969 538.632812 C 418.464844 538.507812 417.769531 538.363281 417.074219 538.199219 C 416.378906 538.03125 415.691406 537.847656 415.007812 537.648438 C 414.324219 537.445312 413.644531 537.222656 412.972656 536.984375 C 412.300781 536.742188 411.636719 536.484375 410.980469 536.207031 C 410.324219 535.933594 409.671875 535.636719 409.03125 535.324219 C 408.390625 535.011719 407.757812 534.683594 407.136719 534.335938 C 406.511719 533.988281 405.902344 533.625 405.296875 533.242188 C 404.695312 532.859375 404.101562 532.464844 403.523438 532.050781 C 402.941406 531.636719 402.371094 531.207031 401.816406 530.761719 C 401.257812 530.316406 400.714844 529.855469 400.183594 529.378906 C 399.652344 528.902344 399.132812 528.414062 398.628906 527.910156 L 385.898438 515.097656 C 385.605469 514.707031 385.292969 514.332031 384.960938 513.972656 C 384.628906 513.613281 384.277344 513.277344 383.90625 512.953125 C 383.539062 512.632812 383.152344 512.335938 382.75 512.054688 C 382.347656 511.777344 381.933594 511.519531 381.503906 511.285156 C 381.074219 511.050781 380.636719 510.839844 380.183594 510.652344 C 379.730469 510.464844 379.269531 510.300781 378.800781 510.164062 C 378.332031 510.023438 377.855469 509.914062 377.375 509.824219 C 376.894531 509.738281 376.410156 509.679688 375.921875 509.644531 C 375.433594 509.609375 374.945312 509.597656 374.457031 509.617188 C 373.96875 509.632812 373.480469 509.679688 372.996094 509.746094 C 372.511719 509.816406 372.035156 509.914062 371.558594 510.035156 C 371.085938 510.15625 370.621094 510.300781 370.160156 510.472656 C 369.703125 510.644531 369.253906 510.839844 368.820312 511.058594 C 368.382812 511.277344 367.957031 511.519531 367.546875 511.785156 C 367.132812 512.046875 366.738281 512.335938 366.359375 512.640625 C 365.976562 512.949219 365.613281 513.277344 365.269531 513.621094 L 351.1875 527.703125 C 350.296875 528.597656 349.363281 529.449219 348.390625 530.253906 C 347.417969 531.054688 346.40625 531.8125 345.359375 532.515625 C 344.3125 533.21875 343.234375 533.871094 342.125 534.472656 C 341.011719 535.070312 339.875 535.617188 338.710938 536.101562 C 337.546875 536.589844 336.359375 537.019531 335.15625 537.394531 C 333.949219 537.765625 332.726562 538.078125 331.492188 538.332031 C 330.253906 538.582031 329.007812 538.773438 327.75 538.90625 C 326.496094 539.035156 325.238281 539.105469 323.976562 539.109375 C 322.710938 539.117188 321.453125 539.0625 320.195312 538.949219 C 318.9375 538.832031 317.691406 538.65625 316.449219 538.417969 C 315.210938 538.179688 313.984375 537.878906 312.777344 537.523438 C 311.566406 537.164062 310.375 536.746094 309.207031 536.273438 C 308.035156 535.796875 306.890625 535.269531 305.773438 534.679688 C 304.65625 534.09375 303.570312 533.453125 302.515625 532.761719 C 301.460938 532.070312 300.441406 531.328125 299.457031 530.535156 C 298.476562 529.742188 297.535156 528.902344 296.632812 528.015625 C 295.734375 527.132812 294.878906 526.207031 294.070312 525.238281 C 293.257812 524.269531 292.5 523.261719 291.789062 522.21875 C 291.074219 521.175781 290.417969 520.101562 289.8125 518.996094 C 289.207031 517.886719 288.65625 516.753906 288.160156 515.59375 C 287.664062 514.429688 287.226562 513.25 286.847656 512.042969 C 286.46875 510.839844 286.148438 509.621094 285.890625 508.386719 C 285.628906 507.148438 285.429688 505.90625 285.292969 504.648438 C 285.15625 503.394531 285.078125 502.136719 285.0625 500.875 C 285.050781 499.613281 285.097656 498.351562 285.203125 497.09375 C 285.3125 495.835938 285.480469 494.585938 285.714844 493.347656 C 285.945312 492.105469 286.234375 490.878906 286.585938 489.667969 C 286.9375 488.453125 287.34375 487.261719 287.8125 486.089844 C 288.28125 484.914062 288.804688 483.769531 289.382812 482.648438 C 289.964844 481.527344 290.597656 480.4375 291.285156 479.375 C 291.96875 478.316406 292.707031 477.292969 293.492188 476.308594 C 294.28125 475.320312 295.113281 474.375 295.992188 473.46875 C 296.199219 473.277344 296.429688 473.140625 296.636719 472.949219 L 361.289062 408.28125 L 361.289062 458.867188 C 361.289062 459.765625 361.378906 460.652344 361.550781 461.535156 C 361.726562 462.414062 361.988281 463.269531 362.332031 464.097656 C 362.675781 464.925781 363.09375 465.714844 363.59375 466.460938 C 364.09375 467.207031 364.660156 467.898438 365.292969 468.535156 C 365.929688 469.167969 366.621094 469.734375 367.367188 470.234375 C 368.113281 470.734375 368.902344 471.152344 369.730469 471.496094 C 370.558594 471.839844 371.414062 472.101562 372.292969 472.273438 C 373.175781 472.449219 374.0625 472.539062 374.960938 472.539062 C 375.859375 472.539062 376.75 472.449219 377.628906 472.273438 C 378.507812 472.101562 379.363281 471.839844 380.195312 471.496094 C 381.023438 471.152344 381.8125 470.734375 382.558594 470.234375 C 383.304688 469.734375 383.996094 469.167969 384.628906 468.535156 C 385.265625 467.898438 385.832031 467.207031 386.328125 466.460938 C 386.828125 465.714844 387.25 464.925781 387.59375 464.097656 C 387.9375 463.269531 388.195312 462.414062 388.371094 461.535156 C 388.546875 460.652344 388.632812 459.765625 388.632812 458.867188 L 388.632812 408.335938 L 453.4375 473.152344 C 454.21875 473.9375 454.964844 474.757812 455.675781 475.605469 C 456.386719 476.457031 457.0625 477.332031 457.695312 478.242188 C 458.332031 479.148438 458.929688 480.082031 459.484375 481.039062 C 460.039062 481.996094 460.554688 482.976562 461.023438 483.980469 C 461.496094 484.980469 461.925781 486.003906 462.308594 487.042969 C 462.695312 488.082031 463.035156 489.132812 463.328125 490.203125 C 463.621094 491.269531 463.871094 492.347656 464.070312 493.4375 C 464.273438 494.527344 464.429688 495.621094 464.535156 496.726562 C 464.644531 497.828125 464.707031 498.933594 464.71875 500.039062 C 464.730469 501.148438 464.699219 502.253906 464.617188 503.359375 C 464.535156 504.464844 464.40625 505.5625 464.230469 506.65625 C 464.054688 507.75 463.832031 508.835938 463.566406 509.910156 C 463.296875 510.984375 462.984375 512.046875 462.625 513.09375 C 462.265625 514.140625 461.859375 515.171875 461.414062 516.183594 C 460.964844 517.199219 460.476562 518.191406 459.941406 519.164062 C 459.410156 520.132812 458.835938 521.082031 458.222656 522.003906 Z M 513.390625 384.53125 L 527.472656 398.613281 C 528.421875 399.5 529.324219 400.429688 530.175781 401.402344 C 531.03125 402.378906 531.835938 403.394531 532.589844 404.449219 C 533.34375 405.503906 534.042969 406.597656 534.683594 407.722656 C 535.328125 408.847656 535.914062 410.003906 536.441406 411.1875 C 536.96875 412.375 537.4375 413.582031 537.84375 414.8125 C 538.25 416.046875 538.59375 417.292969 538.871094 418.558594 C 539.152344 419.828125 539.371094 421.105469 539.523438 422.390625 C 539.675781 423.679688 539.761719 424.972656 539.785156 426.269531 C 539.804688 427.566406 539.761719 428.859375 539.65625 430.152344 C 539.546875 431.445312 539.375 432.730469 539.136719 434.003906 C 538.902344 435.28125 538.601562 436.539062 538.238281 437.785156 C 537.875 439.03125 537.449219 440.253906 536.964844 441.457031 C 536.476562 442.65625 535.933594 443.832031 535.328125 444.980469 C 534.722656 446.128906 534.0625 447.242188 533.347656 448.324219 C 532.628906 449.40625 531.859375 450.445312 531.039062 451.449219 C 530.21875 452.453125 529.347656 453.414062 528.433594 454.332031 C 527.515625 455.246094 526.550781 456.117188 525.546875 456.9375 C 524.542969 457.757812 523.5 458.523438 522.417969 459.238281 C 521.335938 459.953125 520.21875 460.613281 519.070312 461.214844 C 517.921875 461.820312 516.75 462.363281 515.546875 462.847656 C 514.34375 463.332031 513.117188 463.753906 511.871094 464.117188 C 510.628906 464.480469 509.367188 464.777344 508.089844 465.011719 C 506.816406 465.25 505.53125 465.417969 504.238281 465.523438 C 502.945312 465.632812 501.652344 465.671875 500.355469 465.648438 C 499.058594 465.625 497.765625 465.535156 496.476562 465.382812 C 495.191406 465.226562 493.914062 465.007812 492.648438 464.726562 C 491.382812 464.445312 490.132812 464.101562 488.902344 463.691406 C 487.671875 463.285156 486.464844 462.816406 485.277344 462.289062 C 484.09375 461.757812 482.941406 461.171875 481.816406 460.527344 C 480.691406 459.882812 479.597656 459.183594 478.542969 458.425781 C 477.488281 457.671875 476.476562 456.867188 475.5 456.011719 C 474.527344 455.15625 473.597656 454.25 472.714844 453.300781 L 408.019531 388.605469 L 458.730469 388.605469 C 459.628906 388.605469 460.515625 388.519531 461.398438 388.34375 C 462.277344 388.167969 463.132812 387.910156 463.960938 387.566406 C 464.789062 387.222656 465.578125 386.800781 466.324219 386.300781 C 467.070312 385.804688 467.761719 385.238281 468.398438 384.601562 C 469.03125 383.96875 469.597656 383.277344 470.097656 382.53125 C 470.597656 381.785156 471.015625 380.996094 471.359375 380.167969 C 471.703125 379.335938 471.964844 378.480469 472.136719 377.601562 C 472.3125 376.722656 472.402344 375.832031 472.402344 374.933594 C 472.402344 374.035156 472.3125 373.148438 472.136719 372.265625 C 471.964844 371.386719 471.703125 370.53125 471.359375 369.703125 C 471.015625 368.875 470.597656 368.085938 470.097656 367.339844 C 469.597656 366.59375 469.03125 365.902344 468.398438 365.265625 C 467.761719 364.632812 467.070312 364.066406 466.324219 363.566406 C 465.578125 363.066406 464.789062 362.648438 463.960938 362.304688 C 463.132812 361.960938 462.277344 361.699219 461.398438 361.523438 C 460.515625 361.351562 459.628906 361.261719 458.730469 361.261719 L 407.964844 361.261719 L 472.921875 296.292969 C 473.828125 295.449219 474.773438 294.648438 475.753906 293.894531 C 476.738281 293.140625 477.753906 292.433594 478.804688 291.777344 C 479.859375 291.121094 480.9375 290.515625 482.046875 289.964844 C 483.15625 289.410156 484.289062 288.914062 485.445312 288.46875 C 486.601562 288.023438 487.777344 287.636719 488.972656 287.304688 C 490.167969 286.976562 491.375 286.703125 492.59375 286.484375 C 493.8125 286.269531 495.042969 286.113281 496.277344 286.015625 C 497.511719 285.917969 498.75 285.882812 499.988281 285.902344 C 501.226562 285.925781 502.464844 286.003906 503.695312 286.144531 C 504.925781 286.285156 506.148438 286.484375 507.359375 286.742188 C 508.570312 286.996094 509.769531 287.3125 510.949219 287.683594 C 512.132812 288.058594 513.292969 288.484375 514.433594 288.96875 C 515.578125 289.453125 516.691406 289.988281 517.78125 290.582031 C 518.871094 291.171875 519.929688 291.8125 520.957031 292.503906 C 521.984375 293.199219 522.976562 293.9375 523.933594 294.726562 C 524.890625 295.511719 525.804688 296.34375 526.683594 297.21875 C 527.558594 298.097656 528.394531 299.011719 529.179688 299.96875 C 529.96875 300.921875 530.710938 301.914062 531.40625 302.941406 C 532.097656 303.96875 532.742188 305.027344 533.335938 306.113281 C 533.925781 307.203125 534.464844 308.316406 534.949219 309.457031 C 535.433594 310.597656 535.863281 311.757812 536.238281 312.941406 C 536.613281 314.121094 536.929688 315.320312 537.1875 316.53125 C 537.445312 317.742188 537.644531 318.964844 537.789062 320.195312 C 537.929688 321.425781 538.011719 322.660156 538.035156 323.898438 C 538.058594 325.140625 538.019531 326.375 537.925781 327.613281 C 537.828125 328.847656 537.671875 330.074219 537.460938 331.296875 C 537.246094 332.515625 536.972656 333.722656 536.644531 334.917969 C 536.316406 336.113281 535.929688 337.289062 535.484375 338.445312 C 535.042969 339.605469 534.546875 340.738281 533.996094 341.847656 C 533.441406 342.957031 532.839844 344.039062 532.183594 345.089844 C 531.527344 346.140625 530.824219 347.160156 530.070312 348.144531 C 529.320312 349.128906 528.519531 350.074219 527.675781 350.980469 L 514.921875 363.738281 C 514.527344 364.027344 514.148438 364.339844 513.789062 364.671875 C 513.429688 365.003906 513.085938 365.355469 512.765625 365.726562 C 512.441406 366.09375 512.140625 366.480469 511.859375 366.878906 C 511.578125 367.28125 511.320312 367.695312 511.082031 368.125 C 510.84375 368.554688 510.632812 368.996094 510.441406 369.449219 C 510.253906 369.898438 510.089844 370.363281 509.949219 370.832031 C 509.808594 371.300781 509.695312 371.777344 509.609375 372.257812 C 509.519531 372.742188 509.457031 373.226562 509.421875 373.714844 C 509.382812 374.203125 509.375 374.695312 509.390625 375.183594 C 509.40625 375.671875 509.449219 376.160156 509.519531 376.644531 C 509.585938 377.132812 509.683594 377.613281 509.800781 378.085938 C 509.921875 378.5625 510.070312 379.027344 510.238281 379.488281 C 510.410156 379.949219 510.605469 380.398438 510.824219 380.835938 C 511.042969 381.273438 511.285156 381.699219 511.550781 382.113281 C 511.816406 382.523438 512.101562 382.921875 512.410156 383.304688 C 512.714844 383.683594 513.042969 384.050781 513.390625 384.394531 Z M 513.390625 384.53125 " fill-opacity="1" fill-rule="nonzero"/></svg>